<?xml version="1.0" encoding="UTF-8" standalone="no"?>
<!-- Created with Inkscape (http://www.inkscape.org/) -->

<svg
   xmlns:dc="http://purl.org/dc/elements/1.1/"
   xmlns:cc="http://creativecommons.org/ns#"
   xmlns:rdf="http://www.w3.org/1999/02/22-rdf-syntax-ns#"
   xmlns:svg="http://www.w3.org/2000/svg"
   xmlns="http://www.w3.org/2000/svg"
   xmlns:sodipodi="http://sodipodi.sourceforge.net/DTD/sodipodi-0.dtd"
   xmlns:inkscape="http://www.inkscape.org/namespaces/inkscape"
   width="64"
   height="64"
   id="svg3279"
   version="1.1"
   inkscape:version="0.48.3.1 r9886"
   sodipodi:docname="baseball_simple.svg">
  <defs
     id="defs3281">
    <clipPath
       clipPathUnits="userSpaceOnUse"
       id="clipPath4130">
      <path
         inkscape:connector-curvature="0"
         id="path4132"
         d="m 2.9276859,30.355902 c -19.5600719,0 -35.4188579,15.858786 -35.4188579,35.418859 0,19.560077 15.858786,35.418859 35.4188579,35.418859 19.5600741,0 35.4188591,-15.858782 35.4188591,-35.418859 0,-19.560073 -15.858785,-35.418859 -35.4188591,-35.418859 z m 0,1.005682 c 19.0165631,0 34.4131771,15.396614 34.4131771,34.413177 0,19.016566 -15.396614,34.413179 -34.4131771,34.413179 -19.0165619,0 -34.4131759,-15.396613 -34.4131759,-34.413179 0,-19.016563 15.396614,-34.413177 34.4131759,-34.413177 z"
         style="font-size:medium;font-style:normal;font-variant:normal;font-weight:normal;font-stretch:normal;text-indent:0;text-align:start;text-decoration:none;line-height:normal;letter-spacing:normal;word-spacing:normal;text-transform:none;direction:ltr;block-progression:tb;writing-mode:lr-tb;text-anchor:start;baseline-shift:baseline;color:#000000;fill:#d40000;fill-opacity:1;fill-rule:evenodd;stroke:none;stroke-width:1;marker:none;visibility:visible;display:inline;overflow:visible;enable-background:accumulate;font-family:Sans;-inkscape-font-specification:Sans" />
    </clipPath>
    <clipPath
       clipPathUnits="userSpaceOnUse"
       id="clipPath4130-4">
      <path
         inkscape:connector-curvature="0"
         id="path4132-8"
         d="m 2.9276859,30.355902 c -19.5600719,0 -35.4188579,15.858786 -35.4188579,35.418859 0,19.560077 15.858786,35.418859 35.4188579,35.418859 19.5600741,0 35.4188591,-15.858782 35.4188591,-35.418859 0,-19.560073 -15.858785,-35.418859 -35.4188591,-35.418859 z m 0,1.005682 c 19.0165631,0 34.4131771,15.396614 34.4131771,34.413177 0,19.016566 -15.396614,34.413179 -34.4131771,34.413179 -19.0165619,0 -34.4131759,-15.396613 -34.4131759,-34.413179 0,-19.016563 15.396614,-34.413177 34.4131759,-34.413177 z"
         style="font-size:medium;font-style:normal;font-variant:normal;font-weight:normal;font-stretch:normal;text-indent:0;text-align:start;text-decoration:none;line-height:normal;letter-spacing:normal;word-spacing:normal;text-transform:none;direction:ltr;block-progression:tb;writing-mode:lr-tb;text-anchor:start;baseline-shift:baseline;color:#000000;fill:#d40000;fill-opacity:1;fill-rule:evenodd;stroke:none;stroke-width:1;marker:none;visibility:visible;display:inline;overflow:visible;enable-background:accumulate;font-family:Sans;-inkscape-font-specification:Sans" />
    </clipPath>
    <clipPath
       clipPathUnits="userSpaceOnUse"
       id="clipPath4130-49">
      <path
         inkscape:connector-curvature="0"
         id="path4132-5"
         d="m 2.9276859,30.355902 c -19.5600719,0 -35.4188579,15.858786 -35.4188579,35.418859 0,19.560077 15.858786,35.418859 35.4188579,35.418859 19.5600741,0 35.4188591,-15.858782 35.4188591,-35.418859 0,-19.560073 -15.858785,-35.418859 -35.4188591,-35.418859 z m 0,1.005682 c 19.0165631,0 34.4131771,15.396614 34.4131771,34.413177 0,19.016566 -15.396614,34.413179 -34.4131771,34.413179 -19.0165619,0 -34.4131759,-15.396613 -34.4131759,-34.413179 0,-19.016563 15.396614,-34.413177 34.4131759,-34.413177 z"
         style="font-size:medium;font-style:normal;font-variant:normal;font-weight:normal;font-stretch:normal;text-indent:0;text-align:start;text-decoration:none;line-height:normal;letter-spacing:normal;word-spacing:normal;text-transform:none;direction:ltr;block-progression:tb;writing-mode:lr-tb;text-anchor:start;baseline-shift:baseline;color:#000000;fill:#d40000;fill-opacity:1;fill-rule:evenodd;stroke:none;stroke-width:1;marker:none;visibility:visible;display:inline;overflow:visible;enable-background:accumulate;font-family:Sans;-inkscape-font-specification:Sans" />
    </clipPath>
  </defs>
  <sodipodi:namedview
     id="base"
     pagecolor="#ffffff"
     bordercolor="#666666"
     borderopacity="1.0"
     inkscape:pageopacity="0.0"
     inkscape:pageshadow="2"
     inkscape:zoom="7.7781746"
     inkscape:cx="11.722856"
     inkscape:cy="29.431615"
     inkscape:current-layer="layer1"
     showgrid="true"
     inkscape:document-units="px"
     inkscape:grid-bbox="true"
     fit-margin-top="0"
     fit-margin-left="0"
     fit-margin-right="0"
     fit-margin-bottom="0"
     inkscape:window-width="1680"
     inkscape:window-height="973"
     inkscape:window-x="0"
     inkscape:window-y="24"
     inkscape:window-maximized="1" />
  <metadata
     id="metadata3284">
    <rdf:RDF>
      <cc:Work
         rdf:about="">
        <dc:format>image/svg+xml</dc:format>
        <dc:type
           rdf:resource="http://purl.org/dc/dcmitype/StillImage" />
        <dc:title></dc:title>
      </cc:Work>
    </rdf:RDF>
  </metadata>
  <g
     inkscape:groupmode="layer"
     id="layer2"
     inkscape:label="Layer"
     style="display:inline">
    <path
       style="opacity:0;fill:#816647;fill-opacity:1;fill-rule:evenodd"
       d="m 39.214445,62.008169 c 0,-0.06333 -0.08972,-0.767997 -0.199378,-1.565923 C 37.003021,45.801636 26.072638,33.961188 11.637281,30.784986 9.0255684,30.210332 7.645275,30.076151 4.2839676,30.070155 l -3.2392374,-0.0058 0.065517,-0.578542 C 1.4551994,26.439791 1.7913582,24.781844 2.5235163,22.515545 5.4372105,13.496588 12.238214,6.3710545 21.151081,2.9991123 22.426038,2.5167669 24.925766,1.7835538 25.009566,1.867353 c 0.02399,0.023987 0.161715,0.7702439 0.306064,1.6583486 1.203214,7.4027984 4.564111,13.9419424 9.907777,19.2771074 4.084543,4.078047 8.604159,6.865898 13.954816,8.607796 3.688312,1.200726 6.939533,1.698574 11.095311,1.698988 l 2.738595,2.57e-4 -0.07888,0.919988 c -0.456742,5.327188 -1.933767,9.940703 -4.522224,14.125254 -3.607802,5.832442 -8.923792,10.247485 -15.352116,12.750259 -1.671701,0.650869 -3.844467,1.274136 -3.844467,1.102818 z"
       id="path4149"
       inkscape:connector-curvature="0" />
  </g>
  <g
     id="layer1"
     inkscape:label="Layer 1"
     inkscape:groupmode="layer"
     transform="translate(0.4602274,-1.329545)"
     style="display:inline">
    <path
       clip-path="url(#clipPath4130)"
       transform="matrix(0.99435023,0,0,0.99435023,0.70299214,1.1723303)"
       d="m 64.000002,31.22159 a 32.18182,32.18182 0 1 1 -64.36363992,0 32.18182,32.18182 0 1 1 64.36363992,0 z"
       sodipodi:ry="32.18182"
       sodipodi:rx="32.18182"
       sodipodi:cy="31.22159"
       sodipodi:cx="31.818182"
       id="path4134"
       style="fill:#d40000;fill-opacity:1"
       sodipodi:type="arc" />
    <path
       sodipodi:type="arc"
       style="fill:#d40000;fill-opacity:1"
       id="path3318"
       sodipodi:cx="31.818182"
       sodipodi:cy="31.22159"
       sodipodi:rx="32.18182"
       sodipodi:ry="32.18182"
       d="m 64.000002,31.22159 a 32.18182,32.18182 0 1 1 -64.36363992,0 32.18182,32.18182 0 1 1 64.36363992,0 z"
       transform="matrix(-0.99435023,0,0,-0.99435023,62.584521,64.615799)"
       clip-path="url(#clipPath4130)" />
    <path
       style="font-size:medium;font-style:normal;font-variant:normal;font-weight:normal;font-stretch:normal;text-indent:0;text-align:start;text-decoration:none;line-height:normal;letter-spacing:normal;word-spacing:normal;text-transform:none;direction:ltr;block-progression:tb;writing-mode:lr-tb;text-anchor:start;baseline-shift:baseline;color:#000000;fill-opacity:1;fill-rule:nonzero;stroke:none;stroke-width:1;marker:none;visibility:visible;display:inline;overflow:visible;enable-background:accumulate;font-family:Sans;-inkscape-font-specification:Sans"
       d="m 31.525032,1.3295451 c -17.664241,0 -31.9852594,14.3268559 -31.9852594,31.9999999 0,17.673144 14.3210184,32 31.9852594,32 17.664242,0 32.01474,-14.326856 32.01474,-32 0,-17.673144 -14.350498,-32 -32.01474,-32 z m 0,0.9651271 c 17.166187,0 31.071396,13.8956438 31.071396,31.0348728 0,17.139229 -13.905209,31.034873 -31.071396,31.034873 -17.166186,0 -31.0419153,-13.895644 -31.0419153,-31.034873 0,-17.139229 13.8757293,-31.0348728 31.0419153,-31.0348728 z"
       id="path3287"
       inkscape:connector-curvature="0" />
    <path
       style="opacity:0;fill:#cccccf;fill-opacity:1;fill-rule:evenodd"
       d="M 39.067979,60.937102 C 38.498504,56.608482 37.424853,53.094185 35.519904,49.323465 33.829796,45.97801 31.911193,43.293781 29.293034,40.611737 24.184897,35.378957 17.536505,31.838609 10.422937,30.563185 8.0221404,30.132735 6.9992319,30.051589 3.9683911,30.051155 l -2.9090909,-4.17e-4 0.025843,-0.409091 C 1.1405814,28.764093 1.3979256,26.913925 1.6095256,25.87162 3.7424787,15.365063 11.133461,6.7215332 21.208163,2.9516105 c 1.000847,-0.3745141 3.515466,-1.128145 3.76425,-1.128145 0.07087,0 0.138308,0.183856 0.175057,0.4772727 1.874549,14.9668248 13.230646,27.1887678 28.011314,30.1470398 1.242963,0.248773 2.609616,0.444747 3.900516,0.559323 1.202638,0.106742 5.134852,0.131724 5.645808,0.03587 l 0.323235,-0.06064 -0.05962,0.761477 c -0.285763,3.649602 -0.868389,6.284418 -2.138414,9.670569 -0.300438,0.801028 -1.280346,2.835468 -1.829435,3.798188 -1.491261,2.614635 -2.939468,4.491679 -5.206334,6.748012 -3.164085,3.149385 -6.697585,5.444863 -10.753488,6.985821 -1.05051,0.39912 -3.472908,1.149797 -3.710341,1.149797 -0.07264,0 -0.162245,-0.395309 -0.262729,-1.159091 l 0,0 z"
       id="path4136"
       inkscape:connector-curvature="0"
       transform="translate(-0.4602274,1.329545)" />
    <path
       style="opacity:0;fill:#cccccf;fill-opacity:1;fill-rule:evenodd"
       d="M 58.422937,31.993543 C 51.759181,31.69426 45.242895,29.361535 39.775122,25.317926 37.25599,23.454939 34.426887,20.610297 32.57769,18.080962 30.568547,15.332852 28.840787,12.021588 27.771006,8.86892 27.123877,6.9618143 26.413198,3.8558969 26.239044,2.1737044 l -0.06256,-0.6043065 0.259591,-0.054113 c 2.334841,-0.4867064 6.179461,-0.62820352 8.850501,-0.3257332 7.815348,0.8850155 14.705105,4.4567795 19.975939,10.3558563 2.969889,3.323877 5.412804,7.815614 6.603487,12.141694 0.615687,2.236956 0.995034,4.623449 1.114996,7.014488 l 0.06002,1.196307 -0.490859,0.05023 c -0.90028,0.09212 -2.656994,0.111451 -4.12722,0.04542 l 0,0 z"
       id="path4138"
       inkscape:connector-curvature="0"
       transform="translate(-0.4602274,1.329545)" />
    <path
       style="opacity:0;fill:#cccccf;fill-opacity:1;fill-rule:evenodd"
       d="m 39.214445,62.008169 c 0,-0.06333 -0.08972,-0.767997 -0.199378,-1.565923 C 37.003021,45.801636 26.072638,33.961188 11.637281,30.784986 9.0255684,30.210332 7.645275,30.076151 4.2839676,30.070155 l -3.2392374,-0.0058 0.065517,-0.578542 C 1.4551994,26.439791 1.7913582,24.781844 2.5235163,22.515545 5.4372105,13.496588 12.238214,6.3710545 21.151081,2.9991123 22.426038,2.5167669 24.925766,1.7835538 25.009566,1.867353 c 0.02399,0.023987 0.161715,0.7702439 0.306064,1.6583486 1.203214,7.4027984 4.564111,13.9419424 9.907777,19.2771074 4.084543,4.078047 8.604159,6.865898 13.954816,8.607796 3.688312,1.200726 6.939533,1.698574 11.095311,1.698988 l 2.738595,2.57e-4 -0.07888,0.919988 c -0.456742,5.327188 -1.933767,9.940703 -4.522224,14.125254 -3.607802,5.832442 -8.923792,10.247485 -15.352116,12.750259 -1.671701,0.650869 -3.844467,1.274136 -3.844467,1.102818 z"
       id="path4144"
       inkscape:connector-curvature="0"
       transform="translate(-0.4602274,1.329545)" />
    <path
       style="fill:#fffff0;fill-opacity:1;fill-rule:evenodd;stroke:#f0dc5c;stroke-width:0.12856486"
       d="M 28.093584,62.716239 C 19.376161,61.58019 11.641026,56.903128 6.6223671,49.733631 3.9239803,45.878801 2.1945492,41.616046 1.4068709,36.878314 1.1010985,35.039152 0.92194712,31.368117 1.1316414,31.238519 c 0.2241163,-0.138512 5.1263799,-0.101264 6.5249227,0.04958 10.2306469,1.103432 19.3397239,6.692802 25.0342839,15.361149 2.731382,4.15775 4.916108,10.218108 5.313124,14.738431 l 0.08625,0.981991 -0.884242,0.145773 c -0.486333,0.08018 -1.318149,0.200572 -1.848479,0.267548 -1.364461,0.172318 -5.737814,0.132131 -7.263915,-0.06675 l 0,0 z"
       id="path4205"
       inkscape:connector-curvature="0"
       transform="translate(-0.4602274,1.329545)" />
    <path
       style="fill:#fffff0;fill-opacity:1;fill-rule:evenodd;stroke:#f0dc5c;stroke-width:0.12856486"
       d="m 39.214445,62.008169 c 0,-0.06333 -0.08972,-0.767997 -0.199378,-1.565923 C 37.003021,45.801636 26.072638,33.961188 11.637281,30.784986 9.0255684,30.210332 7.645275,30.076151 4.2839676,30.070155 l -3.2392374,-0.0058 0.065517,-0.578542 C 1.4551994,26.439791 1.7913582,24.781844 2.5235163,22.515545 5.4372105,13.496588 12.238214,6.3710545 21.151081,2.9991123 22.426038,2.5167669 24.925766,1.7835538 25.009566,1.867353 c 0.02399,0.023987 0.161715,0.7702439 0.306064,1.6583486 1.203214,7.4027984 4.564111,13.9419424 9.907777,19.2771074 4.084543,4.078047 8.604159,6.865898 13.954816,8.607796 3.688312,1.200726 6.939533,1.698574 11.095311,1.698988 l 2.738595,2.57e-4 -0.07888,0.919988 c -0.456742,5.327188 -1.933767,9.940703 -4.522224,14.125254 -3.607802,5.832442 -8.923792,10.247485 -15.352116,12.750259 -1.671701,0.650869 -3.844467,1.274136 -3.844467,1.102818 z"
       id="path4207"
       inkscape:connector-curvature="0"
       transform="translate(-0.4602274,1.329545)" />
    <path
       style="fill:#fffff0;fill-opacity:1;fill-rule:evenodd;stroke:#f0dc5c;stroke-width:0.12856486"
       d="M 57.792069,31.975636 C 52.842068,31.569017 47.871015,30.110228 43.822245,27.8761 34.546063,22.757463 28.286374,13.997276 26.473062,3.5966066 26.171444,1.8666031 26.169237,1.6231074 26.454382,1.5353075 c 0.671036,-0.206621 3.693684,-0.4623099 5.465235,-0.4623099 3.549487,0 6.493443,0.4674091 9.801843,1.5562296 6.604343,2.1735407 12.424265,6.6687798 16.294794,12.5859058 1.020811,1.560581 2.449047,4.40525 3.101059,6.176492 0.526761,1.430989 1.15211,3.812919 1.433099,5.458629 0.239313,1.401618 0.528854,4.912284 0.414563,5.026573 -0.09654,0.09654 -4.237646,0.175636 -5.172906,0.09881 z"
       id="path4209"
       inkscape:connector-curvature="0"
       transform="translate(-0.4602274,1.329545)" />
    <path
       style="fill:#ffffff;fill-opacity:0;stroke:#d40000;stroke-width:0.82962561px;stroke-linecap:butt;stroke-linejoin:miter;stroke-opacity:1"
       d="M 43.177194,56.706634 C 34.335252,51.626696 32.812842,60.161318 32.812842,60.161318"
       id="path4277"
       inkscape:connector-curvature="0" />
    <path
       inkscape:connector-curvature="0"
       id="path4279"
       d="m 38.814762,47.907024 c -10.050589,-1.723769 -8.540344,6.813014 -8.540344,6.813014"
       style="fill:#ffffff;fill-opacity:0;stroke:#d40000;stroke-width:0.82962561px;stroke-linecap:butt;stroke-linejoin:miter;stroke-opacity:1" />
    <path
       style="fill:#ffffff;fill-opacity:0;stroke:#d40000;stroke-width:0.82962561px;stroke-linecap:butt;stroke-linejoin:miter;stroke-opacity:1"
       d="m 35.020852,42.970473 c -10.145741,-1.024518 -8.048688,7.38737 -8.048688,7.38737"
       id="path4281"
       inkscape:connector-curvature="0" />
    <path
       inkscape:connector-curvature="0"
       id="path4283"
       d="m 30.649646,37.570748 c -10.145741,-1.024518 -8.048688,7.38737 -8.048688,7.38737"
       style="fill:#ffffff;fill-opacity:0;stroke:#d40000;stroke-width:0.82962561px;stroke-linecap:butt;stroke-linejoin:miter;stroke-opacity:1" />
    <path
       style="fill:#ffffff;fill-opacity:0;stroke:#d40000;stroke-width:0.82962561px;stroke-linecap:butt;stroke-linejoin:miter;stroke-opacity:1"
       d="m 23.779976,32.477759 c -9.675581,3.220064 -4.317707,10.035537 -4.317707,10.035537"
       id="path4285"
       inkscape:connector-curvature="0" />
    <path
       inkscape:connector-curvature="0"
       id="path4287"
       d="M 17.72888,29.44402 C 8.1441606,32.925234 13.684853,39.592934 13.684853,39.592934"
       style="fill:#ffffff;fill-opacity:0;stroke:#d40000;stroke-width:0.82962561px;stroke-linecap:butt;stroke-linejoin:miter;stroke-opacity:1" />
    <path
       style="fill:#ffffff;fill-opacity:0;stroke:#d40000;stroke-width:0.82962561px;stroke-linecap:butt;stroke-linejoin:miter;stroke-opacity:1"
       d="M 11.300637,28.029806 C 1.7159171,31.51102 7.2566095,38.17872 7.2566095,38.17872"
       id="path4289"
       inkscape:connector-curvature="0" />
    <path
       inkscape:connector-curvature="0"
       id="path4291"
       d="m 60.926677,29.572584 c -9.58472,3.481214 -4.044028,10.148914 -4.044028,10.148914"
       style="fill:#ffffff;fill-opacity:0;stroke:#d40000;stroke-width:0.82962561px;stroke-linecap:butt;stroke-linejoin:miter;stroke-opacity:1" />
    <path
       style="fill:#ffffff;fill-opacity:0;stroke:#d40000;stroke-width:0.82962561px;stroke-linecap:butt;stroke-linejoin:miter;stroke-opacity:1"
       d="m 54.605303,28.85198 c -10.187605,0.445437 -6.902442,8.468229 -6.902442,8.468229"
       id="path4293"
       inkscape:connector-curvature="0" />
    <path
       inkscape:connector-curvature="0"
       id="path4295"
       d="M 47.550024,26.320167 C 37.432354,25.047976 39.32318,33.508606 39.32318,33.508606"
       style="fill:#ffffff;fill-opacity:0;stroke:#d40000;stroke-width:0.82962561px;stroke-linecap:butt;stroke-linejoin:miter;stroke-opacity:1" />
    <path
       style="fill:#ffffff;fill-opacity:0;stroke:#d40000;stroke-width:0.82962561px;stroke-linecap:butt;stroke-linejoin:miter;stroke-opacity:1"
       d="M 41.250345,22.206091 C 31.132675,20.9339 33.023501,29.39453 33.023501,29.39453"
       id="path4297"
       inkscape:connector-curvature="0" />
    <path
       inkscape:connector-curvature="0"
       id="path4299"
       d="M 37.007704,17.834885 C 26.890034,16.562694 28.78086,25.023324 28.78086,25.023324"
       style="fill:#ffffff;fill-opacity:0;stroke:#d40000;stroke-width:0.82962561px;stroke-linecap:butt;stroke-linejoin:miter;stroke-opacity:1" />
    <path
       style="fill:#ffffff;fill-opacity:0;stroke:#d40000;stroke-width:0.82962561px;stroke-linecap:butt;stroke-linejoin:miter;stroke-opacity:1"
       d="M 35.21478,15.215501 C 26.364618,10.149897 24.85604,18.686973 24.85604,18.686973"
       id="path4301"
       inkscape:connector-curvature="0" />
    <path
       inkscape:connector-curvature="0"
       id="path4303"
       d="M 32.900612,11.615685 C 24.05045,6.5500807 22.541872,15.087157 22.541872,15.087157"
       style="fill:#ffffff;fill-opacity:0;stroke:#d40000;stroke-width:0.82962561px;stroke-linecap:butt;stroke-linejoin:miter;stroke-opacity:1" />
    <path
       style="fill:#ffffff;fill-opacity:0;stroke:#d40000;stroke-width:0.82962561px;stroke-linecap:butt;stroke-linejoin:miter;stroke-opacity:1"
       d="M 31.357834,6.6016551 C 22.507672,1.5360508 20.999094,10.073127 20.999094,10.073127"
       id="path4305"
       inkscape:connector-curvature="0" />
  </g>
</svg>
