<?xml version="1.0" encoding="UTF-8" standalone="no"?>
<!-- Created with Inkscape (http://www.inkscape.org/) -->

<svg
   xmlns:dc="http://purl.org/dc/elements/1.1/"
   xmlns:cc="http://creativecommons.org/ns#"
   xmlns:rdf="http://www.w3.org/1999/02/22-rdf-syntax-ns#"
   xmlns:svg="http://www.w3.org/2000/svg"
   xmlns="http://www.w3.org/2000/svg"
   xmlns:sodipodi="http://sodipodi.sourceforge.net/DTD/sodipodi-0.dtd"
   xmlns:inkscape="http://www.inkscape.org/namespaces/inkscape"
   width="1224.5397"
   height="778.91583"
   id="svg2"
   version="1.1"
   inkscape:version="0.48.3.1 r9886"
   sodipodi:docname="title_image.svg">
  <defs
     id="defs4" />
  <sodipodi:namedview
     id="base"
     pagecolor="#ffffff"
     bordercolor="#666666"
     borderopacity="1.0"
     inkscape:pageopacity="0.0"
     inkscape:pageshadow="2"
     inkscape:zoom="0.49497475"
     inkscape:cx="165.13781"
     inkscape:cy="512.73006"
     inkscape:document-units="px"
     inkscape:current-layer="layer1"
     showgrid="false"
     fit-margin-top="0"
     fit-margin-left="0"
     fit-margin-right="0"
     fit-margin-bottom="0"
     inkscape:window-width="1680"
     inkscape:window-height="973"
     inkscape:window-x="0"
     inkscape:window-y="24"
     inkscape:window-maximized="1" />
  <metadata
     id="metadata7">
    <rdf:RDF>
      <cc:Work
         rdf:about="">
        <dc:format>image/svg+xml</dc:format>
        <dc:type
           rdf:resource="http://purl.org/dc/dcmitype/StillImage" />
        <dc:title />
      </cc:Work>
    </rdf:RDF>
  </metadata>
  <g
     inkscape:label="Layer 1"
     inkscape:groupmode="layer"
     id="layer1"
     transform="translate(66.629176,-277.49778)">
    <path
       style="fill:#ffcc00"
       d="m 309.30449,737.82814 c -1.15405,-1.1425 -2.95973,-1.7005 -5.52687,-1.70793 -3.02647,-0.009 -4.49557,-0.63103 -7.12405,-3.0182 -3.68498,-3.34656 -6.19187,-4.15635 -6.58215,-2.12621 -0.14186,0.73789 -1.41946,0.94038 -2.83913,0.45001 -4.08403,-1.4106 -8.21207,-6.43318 -10.26033,-12.48374 -1.31018,-3.87029 -4.69844,-8.94299 -11.08211,-16.59159 -10.16666,-12.18124 -16.57962,-21.29783 -27.27208,-38.76972 -6.25106,-10.21451 -18.80592,-25.32108 -24.8775,-29.93371 -1.03438,-0.78582 -4.12424,-2.20009 -6.86639,-3.14283 -3.66174,-1.25889 -5.76931,-2.76496 -7.93656,-5.67147 -3.42161,-4.5888 -8.12974,-6.57089 -27.13235,-11.42264 -6.52099,-1.66493 -19.54966,-6.02915 -28.95258,-9.69826 -12.88459,-5.02769 -20.99338,-7.55926 -32.91587,-10.27649 C 92.899328,589.5525 84.326479,586.48196 67.919627,578.38619 51.715224,570.39032 40.290456,563.26156 14.229751,544.8851 1.0156227,535.56729 -10.241853,528.01871 -10.786842,528.1105 c -0.545038,0.0918 -3.553409,0.61903 -6.685308,1.17162 -5.687095,1.0034 -5.703861,1.00063 -13.055344,-2.15689 -5.441042,-2.33695 -9.978066,-5.40024 -17.395225,-11.74484 -13.166072,-11.26223 -15.407915,-14.45516 -15.654179,-22.29553 -0.11136,-3.54574 -1.068387,-10.17522 -2.126712,-14.73214 -2.490109,-10.72189 -0.653506,-12.0527 14.232948,-10.31309 10.609048,1.23976 10.950256,1.34898 16.438226,5.26154 3.721111,2.6529 6.768678,5.97936 9.069449,9.89944 3.485406,5.93841 8.40557,10.02323 12.900742,10.71045 1.333342,0.20383 5.1477401,2.0305 8.4764495,4.05923 12.631277,7.69832 54.3388945,28.61082 58.2552245,29.20954 4.750183,0.7262 8.841135,-3.18558 7.138088,-6.82551 -0.789723,-1.68788 -3.960664,-3.9543 -9.65253,-6.89902 -9.602335,-4.96789 -12.245945,-8.50512 -10.295832,-13.77606 1.345159,-3.63578 10.015325,-8.48821 14.061294,-7.86966 4.291068,0.65601 21.037368,9.74349 23.584631,12.79836 1.948467,2.33675 3.223605,2.83352 9.889445,3.85259 8.811572,1.3471 18.720795,4.72525 29.001065,9.88679 6.43228,3.22951 8.54474,3.79651 20.07571,5.38855 16.19724,2.23625 28.18955,6.7085 48.02174,17.90854 l 13.64717,7.70715 7.59839,-0.61584 c 4.17913,-0.33871 10.74964,-0.43787 14.60116,-0.22038 3.85152,0.21747 7.21172,0.084 7.4671,-0.29676 0.25543,-0.38068 -1.28545,-6.0149 -3.4241,-12.52044 -3.93195,-11.96041 -3.70039,-15.8928 1.14386,-19.42691 4.87661,-3.55773 9.17708,-3.55182 32.67961,0.045 18.9098,2.89305 23.09061,3.80764 28.62746,6.25629 8.51463,3.76557 14.35347,8.86049 19.94315,17.40226 4.31402,6.59237 5.13292,7.2827 14.934,12.58962 11.71509,6.34329 12.37604,7.97906 1.52958,3.78565 -7.06323,-2.73077 -7.33888,-2.76843 -8.79183,-1.20152 -0.91097,0.98242 -0.30659,4.1682 1.53919,8.11318 1.81634,3.88204 2.56808,7.75307 1.86831,9.62077 l -1.17086,3.12513 14.83822,8.36785 c 17.99131,10.14606 27.54698,17.25557 45.71171,34.01009 15.23328,14.05066 20.72681,17.77727 37.45505,25.40811 6.16939,2.81425 18.27643,8.94541 26.90453,13.62477 9.58646,5.19911 17.24692,8.74634 19.69735,9.12096 5.95331,0.91013 14.88897,-2.59516 27.30178,-10.70998 11.94663,-7.81006 18.38418,-9.08426 30.48935,-6.0349 9.24051,2.32777 22.19299,9.7398 33.13938,18.96392 8.39998,7.07835 10.11824,9.09343 12.99273,15.23706 2.64884,5.66135 2.88884,8.05691 1.19785,11.95596 -1.1631,2.68184 -3.82032,5.49881 -5.90495,6.25995 -2.08464,0.76113 -3.5043,1.99501 -3.15482,2.74197 0.34947,0.7469 0.002,1.16226 -0.77277,0.923 -0.7745,-0.23931 -6.1067,0.0345 -11.84933,0.60826 -12.22913,1.222 -32.30053,0.0107 -44.9492,-2.71278 -12.0039,-2.5846 -41.61947,-12.19936 -38.42325,-12.47417 2.25666,-0.19406 2.17841,-7.63537 -0.0944,-8.96935 -0.52757,-0.30966 -9.52633,-2.68986 -19.99723,-5.2893 -25.02803,-6.21337 -39.59189,-12.04174 -61.03508,-24.42593 -9.11441,-5.26388 -19.65845,-10.68413 -23.43115,-12.04496 -8.24312,-2.97338 -10.94675,-4.67915 -14.38429,-9.07528 -2.27047,-2.90363 -3.94681,-3.75094 -12.94819,-6.54482 -5.68702,-1.76513 -11.48988,-3.38516 -12.89522,-3.6 -1.40531,-0.21485 -9.7405,0.8327 -18.52258,2.32793 -8.7821,1.49519 -20.36044,3.03171 -25.72966,3.41444 -5.3692,0.38276 -10.04973,1.1245 -10.40117,1.64832 -2.38749,3.5589 21.63599,57.85381 33.30427,75.27013 9.94915,14.85038 16.70726,19.68324 44.1464,31.57004 5.13929,2.22637 9.54455,4.47617 9.78944,4.99958 0.53108,1.1351 -9.63697,-1.50254 -16.19465,-4.20076 -5.81636,-2.3933 -6.46971,-1.9751 -2.72787,1.74603 4.98247,4.95488 0.83606,4.15769 -8.54834,-1.64351 l -8.657,-5.35154 1.03638,4.58699 c 1.04271,4.61509 -2.08007,5.75953 -5.76398,2.11249 z"
       id="path4183"
       inkscape:connector-curvature="0" />
    <path
       style="fill:#000000"
       d="m 301.88788,757.83222 c -1.48379,-0.90875 -2.51302,-2.29394 -2.90054,-3.9037 -0.59714,-2.48056 -0.60238,-2.48317 -0.8978,-0.45069 -0.42086,2.89554 -3.00617,3.36111 -7.2381,1.30356 -3.68193,-1.79012 -5.10104,-3.89172 -5.90353,-8.74257 -0.28773,-1.73931 -0.77666,-3.16237 -1.08651,-3.16237 -0.30984,0 -1.08476,1.3331 -1.72204,2.96251 -1.60093,4.09337 -3.97432,5.09922 -7.70913,3.26721 -2.27492,-1.11591 -2.99036,-1.9856 -3.59438,-4.3695 -0.41477,-1.637 -1.19887,-3.77156 -1.74245,-4.74341 -1.18638,-2.12109 -1.19655,-7.47138 -0.0309,-16.26879 1.14458,-8.63841 0.48901,-15.15274 -2.57158,-25.55359 -7.84502,-26.65974 -11.23204,-47.89836 -14.17059,-88.85802 -1.06435,-14.8359 -1.40636,-17.06727 -3.64948,-23.81082 -1.36129,-4.09247 -3.33382,-10.19004 -4.38339,-13.55012 -1.04957,-3.3601 -3.12287,-8.77787 -4.60733,-12.0395 -2.64016,-5.80089 -2.76597,-5.94035 -5.76821,-6.39402 -8.81083,-1.33144 -9.36648,-1.93193 -9.36648,-10.12249 0,-6.9837 -1.23133,-8.95564 -6.45434,-10.33645 -1.95099,-0.51578 -7.44796,-2.23382 -12.21551,-3.81787 -6.10173,-2.02734 -10.59852,-3.0225 -15.18762,-3.36107 -8.22902,-0.60711 -13.2613,-2.46916 -25.69254,-9.50676 -16.04092,-9.08119 -20.90718,-10.61538 -41.38955,-13.04914 -6.64025,-0.789 -13.73293,-1.99711 -15.76155,-2.68469 -10.144509,-3.43837 -19.951779,-9.29924 -32.952369,-19.69249 -16.44855,-13.1497 -24.85018,-23.25241 -51.5065,-61.93486 -7.2619,-10.53813 -13.5967598,-19.16024 -14.0775798,-19.16024 -0.48074,0 -2.00691,0.82758 -3.39143,1.83906 -8.385702,6.12615 -8.040536,5.97468 -13.579196,5.95948 -4.5316112,-0.0124 -5.8670092,-0.35547 -9.9138012,-2.54677 -6.959405,-3.76844 -10.568276,-8.32237 -16.824013,-21.22955 -7.413774,-15.29671 -9.499069,-21.61866 -9.455729,-28.66744 0.03927,-6.41921 3.043374,-19.90434 5.762992,-25.87062 2.318666,-5.08679 3.160578,-9.78723 4.40774,-24.60983 0.847171,-10.06936 1.327841,-12.75466 2.795408,-15.61896 3.844612,-7.50332 12.990587,-11.48996 26.6032742,-11.59607 7.761015,-0.0605 7.952895,-0.0206 10.757415,2.23739 4.2306798,3.40625 7.9531198,8.70564 9.7751098,13.91625 1.3051,3.73239 1.61374,6.27637 1.60767,13.25118 -0.0111,12.97917 0.0363,13.05381 10.94863,17.03167 5.47584,1.99616 8.30621,4.03357 8.30621,5.97903 0,3.15306 1.78177,5.12426 7.35503,8.137 3.85283,2.08275 11.67215,8.14749 24.17392,18.74954 10.16347,8.61905 19.47918,16.30262 20.7016,17.07461 4.37351,2.76197 8.18367,1.35841 12.730029,-4.68943 4.16348,-5.53855 5.42101,-8.24972 5.42101,-11.68753 0,-4.81528 -1.13151,-6.3211 -6.69551,-8.91024 -10.000709,-4.65373 -13.702259,-12.70596 -10.816389,-23.52951 3.23333,-12.1264 15.714279,-26.91048 24.783509,-29.35668 5.35566,-1.44456 10.36016,0.98059 19.43317,9.41725 4.70467,4.37466 6.65854,7.43589 8.04379,12.60274 l 0.82362,3.07216 9.81089,0.357 c 13.57668,0.49401 18.22468,2.35352 33.56379,13.42778 l 6.59179,4.75903 4.08999,-1.12484 c 6.50371,-1.78866 19.8424,-1.55856 26.91535,0.46432 12.54695,3.58845 25.88089,12.53582 42.07322,28.23211 l 7.11159,6.89373 5.55681,-2.57859 c 7.72236,-3.5835 16.83789,-6.07955 24.48637,-6.70496 9.64138,-0.78838 9.38224,-0.37385 9.78359,-15.65027 0.32536,-12.38401 1.81164,-28.31226 3.47158,-37.20434 1.78548,-9.56459 9.95518,-21.024 18.8038,-26.37557 8.22614,-4.9751 9.35316,-5.14492 35.20375,-5.30447 22.33909,-0.13787 23.52262,-0.0744 28.49322,1.52825 10.18928,3.28528 14.31138,6.51446 18.20515,14.2616 3.50605,6.9757 5.19914,14.626 5.66127,25.58074 l 0.4088,9.69055 3.671,2.21484 c 6.60607,3.98568 19.09831,17.25252 19.09831,20.28254 0,2.05908 -5.72053,0.46701 -12.55359,-3.49377 -3.59109,-2.08157 -7.08846,-3.78467 -7.77194,-3.78467 -0.73345,0 -1.85567,1.29592 -2.73851,3.16237 -0.8227,1.7393 -1.96589,3.99947 -2.54043,5.02259 -1.26792,2.25789 -1.33364,6.36366 -0.23908,14.93581 0.94066,7.36683 0.30096,10.28177 -4.27492,19.47968 l -2.49942,5.02406 2.41784,2.20897 c 1.32982,1.21494 2.64409,2.2188 2.92063,2.2308 0.27652,0.012 3.00757,2.95165 6.069,6.53257 3.06142,3.58092 8.77622,9.35689 12.69954,12.8355 4.80395,4.25941 8.45023,8.30066 11.16613,12.37568 4.79658,7.19694 14.54383,27.18903 18.75026,38.45772 4.09899,10.98086 9.38536,21.38591 13.40199,26.37888 4.16115,5.17259 11.66094,10.96527 18.93449,14.62459 7.27808,3.66159 10.24031,5.96659 25.89327,20.14822 7.22731,6.54797 14.01947,12.48915 15.09368,13.20264 2.25171,1.49557 8.25169,1.7491 10.70692,0.45242 0.89002,-0.47005 2.4678,-1.55827 3.50616,-2.41828 1.03837,-0.86001 4.20554,-2.73559 7.03816,-4.16795 6.06157,-3.06515 15.33292,-11.96098 26.36689,-25.29896 9.26961,-11.20519 15.3866,-16.8552 22.06344,-20.37907 14.76846,-7.79442 25.79495,-6.23292 40.91951,5.79476 6.55439,5.21233 16.86985,22.42646 21.73181,36.26542 1.91022,5.43718 1.98434,6.19427 1.71177,17.48604 -0.27299,11.30907 -0.38615,12.04967 -2.70513,17.70401 -5.10136,12.43857 -11.1081,20.72494 -18.4364,25.43323 -2.14275,1.37664 -3.89592,2.65974 -3.89592,2.85127 0,0.19153 1.33354,2.26024 2.96343,4.59712 2.78666,3.99545 3.77728,6.97856 2.31742,6.97856 -0.35531,0 -2.38998,-1.80217 -4.52149,-4.00475 l -3.87545,-4.00475 -8.9992,4.30358 c -15.0725,7.2079 -25.25031,9.80015 -44.1094,11.2346 -19.99328,1.52061 -29.20736,0.0223 -50.8294,-8.2654 -6.51956,-2.49894 -13.43732,-4.74147 -15.37282,-4.98344 -3.71535,-0.46439 -4.65129,-1.47865 -1.85214,-2.0071 0.91681,-0.17308 2.96903,-0.59803 4.56049,-0.94425 l 2.89356,-0.62957 2.39288,-9.17114 c 1.63478,-6.26559 2.12634,-9.25559 1.55158,-9.43779 -0.4627,-0.14667 -4.34184,-0.6426 -8.62029,-1.10204 -11.07065,-1.18884 -28.74678,-4.19287 -33.02969,-5.61336 -12.05289,-3.99748 -26.34009,-11.07186 -33.6476,-16.66076 -2.64857,-2.02566 -6.14913,-5.57898 -7.77902,-7.89626 -2.64086,-3.75462 -17.8308,-18.33224 -23.27914,-22.34074 -1.14659,-0.84359 -4.04573,-1.97144 -6.44253,-2.50636 -6.98406,-1.55869 -9.47744,-3.1743 -11.2147,-7.26666 -1.55818,-3.67054 -2.62574,-7.28162 -3.69657,-12.50398 l -0.6103,-2.97634 -4.79015,-0.4583 c -5.49659,-0.52589 -7.17937,-1.11814 -12.47415,-4.39025 -3.71505,-2.29585 -3.93351,-2.33759 -7.70092,-1.47136 -4.78393,1.09997 -14.13666,5.53047 -20.54673,9.73326 -8.43324,5.52926 -35.44826,17.44706 -47.98653,21.16946 -8.28098,2.45849 -9.17833,4.51288 -8.54551,19.56433 0.49642,11.80756 -0.60106,24.90829 -2.79147,33.32194 -2.85409,10.96294 -2.9592,13.46292 -1.81089,43.07304 2.1122,54.46491 2.96358,64.95691 6.35589,78.32666 1.97786,7.79521 5.83781,15.72211 9.71222,19.9454 3.62172,3.9479 18.15885,13.79604 28.86418,19.55401 8.55823,4.60315 9.34264,5.37819 8.13575,8.03852 -0.85907,1.8937 -0.99055,1.92384 -6.96186,1.59466 -6.39972,-0.35285 -9.43661,-1.49004 -15.9547,-5.97465 -1.7604,-1.21115 -3.33287,-2.06938 -3.4944,-1.90717 -0.16152,0.16221 0.69412,2.28725 1.90143,4.72227 3.79928,7.66276 2.36953,12.09023 -3.15363,9.76577 -3.65865,-1.53981 -6.7455,-4.45418 -11.67011,-11.01814 l -4.46049,-5.94525 -0.0177,6.18447 c -0.0364,12.72717 -2.86032,16.53972 -9.32036,12.58333 z"
       id="path4141"
       inkscape:connector-curvature="0" />
    <text
       transform="matrix(0.75957679,-0.27198826,0.41784277,1.166902,0,0)"
       sodipodi:linespacing="125%"
       id="text3068"
       y="843.82184"
       x="-270.0632"
       style="font-size:198.21363831px;font-style:italic;font-weight:bold;line-height:125%;letter-spacing:0px;word-spacing:0px;fill:#ffcc00;fill-opacity:1;stroke:none;font-family:Sans;-inkscape-font-specification:Sans Bold Italic"
       xml:space="preserve"><tspan
         y="843.82184"
         x="-270.0632"
         id="tspan3070"
         sodipodi:role="line">CYBERBALL</tspan></text>
    <text
       xml:space="preserve"
       style="font-size:198.21363831px;font-style:normal;font-weight:bold;line-height:125%;letter-spacing:0px;word-spacing:0px;fill:#ffffff;fill-opacity:1;stroke:none;font-family:Sans;-inkscape-font-specification:Sans Bold"
       x="-283.23953"
       y="843.96661"
       id="text3064"
       sodipodi:linespacing="125%"
       transform="matrix(0.75957679,-0.27198826,0.41784277,1.166902,0,0)"><tspan
         sodipodi:role="line"
         id="tspan3066"
         x="-283.23953"
         y="843.96661">CYBERBALL</tspan></text>
  </g>
</svg>
